# xmcd
# 
# Track frame offsets:
#     180
#     16425
#     31682
#     50127
#     67693
#     83675
#     96855
#     111771
#     126611
#     144726
#     154216
#     179376
#     192813
#     210271
# 
# Disc length: 3125
# 
# Revision: 2
# Processed by: cddbd v1.5.2PL0 Copyright (c) Steve Scherf et al.
# Submitted via: fre:ac v1.0.27
# 
DISCID=bb0c330e
DTITLE=Various Artist - The Future Of The Blues: NorthernBlues Music Catalogue 2002
DYEAR=2002
DGENRE=Blues
TTITLE0=Johnny Jones - Slacked In The Back
TTITLE1=Harry Manx - Don't Forget To Miss Me
TTITLE2=Rita Chiarelli - Woman In Blue
TTITLE3=Paul Reddick and The Sidemen - One Way Trip
TTITLE4=Otis Taylor - My Soul's In Louisiana
TTITLE5=Archie Edwards - Sittin' On Top Of The World
TTITLE6=Harry Manx - Lay Down My Worries
TTITLE7=Otis Taylor - Live Your Life
TTITLE8=David Jacobs-Strain - River Was Green
TTITLE9=Brian Blain - Computer Club Queen
TTITLE10=Paul Reddick and The Sidemen - The Woman I Love
TTITLE11=Archie Edwards - Baby, Please Give Me A Break
TTITLE12=JW-Jones Blues Band - Jump Tonight
TTITLE13=JW-Jones Blues Band - Defibrillatin'
EXTD=
EXTT0=
EXTT1=
EXTT2=
EXTT3=
EXTT4=
EXTT5=
EXTT6=
EXTT7=
EXTT8=
EXTT9=
EXTT10=
EXTT11=
EXTT12=
EXTT13=
PLAYORDER=
